<?xml version="1.0" encoding="UTF-8"?>
<svg id="Layer_2" data-name="Layer 2" xmlns="http://www.w3.org/2000/svg" viewBox="0 0 16.9 10.18">
  <defs>
    <style>
      .cls-1 {
        fill: #1d1d1b;
      }
    </style>
  </defs>
  <g id="Layer_1-2" data-name="Layer 1">
    <g id="Layer_1-2" data-name="Layer 1-2">
      <path class="cls-1" d="M9.72,1.42c0-.42.23-.75.87-.94.21-.06.59-.11,1.11-.11h3.6c.24,0,.46-.03.62-.07.27-.08.45-.17.62-.3.21.17.38.56.38.84,0,.81-.37,1.26-.89,1.53-.03-.03-.07-.06-.1-.09-.72-.59-1.67-.92-2.66-.92-1.18,0-2.3.25-3.28.72-.15-.15-.24-.38-.24-.66"/>
      <path class="cls-1" d="M13.25,2h0l-.38,1.14h0c.49,0,.63.3-.25,2.95-.88,2.65-1.13,2.95-1.72,2.95l-.38,1.14c3.03,0,5.98-1.84,5.98-5.34,0-1.72-1.58-2.83-3.25-2.83"/>
      <path class="cls-1" d="M10.02,10.18l.38-1.14c-.49,0-.64-.3.25-2.95.88-2.65,1.14-2.95,1.72-2.95l.38-1.14c-3.03,0-5.22,2.63-5.22,5.34,0,1.43,1.03,2.83,2.5,2.83"/>
      <path class="cls-1" d="M5.93,3.47c-.18.52-.51.88-.92,1.19-.41-.31-.74-.66-.58-1.15.18-.54.56-.86,1.13-.86.41,0,.48.47.36.82M3.67,8.16c-.18.5-.5.72-.96.72-.43,0-.87-.41-.7-.97.15-.51.49-.84.92-1.12.15.15.29.3.43.44.34.35.44.59.32.93M7.83,3.02c0-.8-.65-1.52-1.89-1.52C3.51,1.51,1.61,2.77,1.61,4.49c0,.44.22,1.09.5,1.44-1.37.44-2.11,1.24-2.11,2.42,0,.93,1.06,1.83,2.72,1.83,3.25,0,4.18-1.25,4.18-2.9,0-.57-.2-1.23-1.13-2.06-.03-.03-.06-.05-.09-.08,1.33-.42,2.16-1,2.16-2.12"/>
    </g>
  </g>
</svg>