<?xml version="1.0" encoding="UTF-8"?>
<svg id="Layer_2" data-name="Layer 2" xmlns="http://www.w3.org/2000/svg" viewBox="0 0 659.82 319.1">
  <defs>
    <style>
      .cls-1 {
        fill: #1d1d1b;
      }

      .cls-2 {
        fill: #e2050d;
      }
    </style>
  </defs>
  <g id="Layer_1-2" data-name="Layer 1">
    <path class="cls-1" d="M142.99,166.94c6.07,0,11.79,4.03,11.79,10.26,0,12.69-10.66,19.35-21.66,19.35-6.08,0-11.79-4.03-11.79-10.26,0-12.69,10.66-19.35,21.67-19.35"/>
    <path class="cls-1" d="M249.38,166.94c6.07,0,11.79,4.03,11.79,10.26,0,12.69-10.66,19.35-21.66,19.35-6.08,0-11.79-4.03-11.79-10.26,0-12.69,10.66-19.35,21.67-19.35"/>
    <path class="cls-1" d="M99.03,136.05c-11.81,10.65-26.74,15.98-44.82,15.98s-32.09-5.7-41.13-17.08C4.05,123.57.84,109.62,3.45,93.11c2.51-15.67,9.66-28.83,21.47-39.48,11.8-10.66,26.74-15.98,44.81-15.98,11.91,0,22.07,2.74,30.48,8.23,8.41,5.48,14.31,12.66,17.71,21.55,3.39,8.88,4.26,18.6,2.58,29.14-2.51,15.67-9.66,28.83-21.47,39.49M36.67,117.09c3.97,5.53,10.4,8.3,19.27,8.3,9.61,0,17.53-2.87,23.74-8.62,6.21-5.74,10.05-13.37,11.52-22.87,1.36-8.67.05-15.77-3.92-21.32-3.97-5.53-10.39-8.3-19.27-8.3-9.61,0-17.5,2.87-23.66,8.62-6.16,5.74-10.03,13.37-11.59,22.88-1.36,8.67-.05,15.78,3.91,21.31"/>
    <path class="cls-2" d="M69.76,25.59c14.23,0,26.7,3.43,37.06,10.19,3.03,1.98,5.74,4.2,8.27,6.56.22-.16.44-.34.65-.49,6.98-4.58,11.86-12.66,11.86-27.05,0-4.96-2.24-11.78-5.01-14.8-2.26,2.24-4.57,3.8-8.18,5.22-2.12.86-5.02,1.3-8.16,1.3h-47.82c-6.92,0-11.89.86-14.71,1.97-8.41,3.38-11.49,9.25-11.49,16.65,0,3.14.55,5.91,1.44,8.22,10.62-5.15,22.69-7.78,36.09-7.78"/>
    <path class="cls-1" d="M264.5,47.04l-4.38,27.43h20.37l-3.45,21.94h-20.37l-4.07,25.22c-.52,3.03-.16,5.2,1.09,6.5,1.25,1.31,3.6,1.96,7.05,1.96,4.49,0,8.78-.68,12.85-2.04l-3.29,21c-4.91,1.98-11.43,2.98-19.59,2.98s-14.88-2.14-19.9-6.43c-5.01-4.29-6.79-11.02-5.33-20.22l4.55-28.99h-11.91l3.45-21.94h11.91l3.45-21.15,27.58-6.27Z"/>
    <path class="cls-1" d="M370.11,74.47l-11.91,75.22h-23.51l1.41-8.62c-6.69,7.31-14.84,10.97-24.45,10.97s-16.61-3.06-21.31-9.17c-4.7-6.11-6.37-13.61-5.01-22.49l7.21-45.91h26.64l-6.89,43.88c-1.15,7.32,1.67,10.96,8.46,10.96,5.95,0,11.02-2.4,15.2-7.2l7.52-47.64h26.64Z"/>
    <polygon class="cls-1" points="419.15 35.3 400.97 149.68 374.33 149.68 392.51 35.3 419.15 35.3"/>
    <path class="cls-1" d="M425.41,92.49c3.03-5.12,6.66-9.09,10.89-11.91,4.23-2.82,8.59-4.93,13.08-6.34,4.49-1.41,9.03-2.12,13.63-2.12,6.06,0,11.39.94,15.98,2.83,4.6,1.88,8.23,4.41,10.89,7.6,2.66,3.18,4.6,6.82,5.8,10.89,1.2,4.07,1.64,8.38,1.33,12.92-.31,4.54-1.31,9.12-2.98,13.71h-49.51c1.57,7.73,8.61,11.59,21.15,11.59,9.61,0,17.44-1.46,23.51-4.39l-3.14,20.38c-7.1,2.93-16.19,4.39-27.26,4.39-12.85,0-23.09-3.81-30.72-11.44-7.63-7.63-10.5-17.81-8.62-30.56.94-6.58,2.93-12.43,5.95-17.55M471.33,95.62c-1.57-2.82-4.6-4.23-9.09-4.23-3.86,0-7.23,1.2-10.11,3.6-2.87,2.4-4.62,5.43-5.25,9.09h25.38c.94-2.82.63-5.64-.94-8.46"/>
    <path class="cls-1" d="M546.23,39.99l-6.43,39.96c7-5.23,14.1-7.84,21.31-7.84,9.51,0,16.56,3.06,21.16,9.17,4.6,6.11,6.21,13.61,4.85,22.49l-7.36,45.91h-26.64l6.9-43.88c1.15-7.32-1.62-10.96-8.3-10.96-5.33,0-10.45,2.45-15.36,7.36l-7.52,47.48h-26.64l17.4-109.69h26.64Z"/>
    <path class="cls-1" d="M642.75,47.04l-4.39,27.43h20.37l-3.45,21.94h-20.37l-4.07,25.22c-.52,3.03-.16,5.2,1.09,6.5,1.25,1.31,3.6,1.96,7.05,1.96,4.49,0,8.78-.68,12.85-2.04l-3.29,21c-4.91,1.98-11.44,2.98-19.59,2.98s-14.88-2.14-19.9-6.43c-5.01-4.29-6.79-11.02-5.33-20.22l4.55-28.99h-11.91l3.45-21.94h11.91l3.45-21.15,27.58-6.27Z"/>
    <polygon class="cls-1" points="108.43 282.27 120.34 207.05 146.98 207.05 135.07 282.27 108.43 282.27"/>
    <path class="cls-1" d="M216.86,205.64l-4.08,25.54c-5.95-1.46-11.43-1.31-16.45.47-5.01,1.78-9.04,4.76-12.07,8.93l-6.59,41.68h-26.64l11.91-75.21h23.5l-1.57,10.03c6.79-9.09,17.44-12.9,31.97-11.44"/>
    <path class="cls-1" d="M229.79,313.53c-5.27,3.71-12.46,5.56-21.55,5.56-5.74,0-10.86-.89-15.35-2.67l3.44-21.62c1.99.73,4.44,1.1,7.37,1.1,3.24,0,5.72-.75,7.45-2.27,1.72-1.51,2.84-4.1,3.37-7.76l12.53-78.82h26.64l-13.63,86.5c-1.57,9.61-4.99,16.27-10.26,19.98"/>
    <path class="cls-1" d="M291.28,284.62c-11.8,0-20.37-4.18-25.7-12.54-5.33-8.36-7.1-18.08-5.33-29.15,1.67-10.34,6.08-19.3,13.24-26.87,7.15-7.57,16.48-11.36,27.97-11.36,6.16,0,11.33,1.41,15.51,4.24,4.18,2.81,7.16,6.26,8.93,10.34l1.88-12.22h23.51l-11.91,75.22h-23.5l1.57-10.18c-5.74,8.36-14.47,12.54-26.17,12.54M289.01,257.43c2.04,3.5,5.51,5.25,10.42,5.25,7.41,0,13.42-3.34,18.02-10.03l2.82-17.08c-.62-2.61-2.06-4.76-4.31-6.43-2.25-1.67-5.04-2.51-8.39-2.51-5.64,0-10.26,1.82-13.87,5.49-3.6,3.66-5.82,8.1-6.66,13.32-.73,4.49-.08,8.49,1.95,11.99"/>
    <path class="cls-1" d="M365.72,215.91c2.4-3.08,5.38-5.38,8.93-6.89,3.55-1.51,7.1-2.61,10.66-3.29,3.55-.68,7.31-1.02,11.28-1.02,10.45,0,20.11,2.14,28.98,6.43l-3.29,21.15c-7.94-5.32-16.35-7.99-25.22-7.99-5.23,0-8.04,1.26-8.46,3.77-.31,1.88.81,3.47,3.37,4.78,2.56,1.31,5.72,2.55,9.48,3.76,3.76,1.2,7.5,2.64,11.2,4.31,3.71,1.67,6.66,4.28,8.85,7.83,2.2,3.55,2.87,7.95,2.04,13.16-.73,4.5-2.22,8.31-4.47,11.44-2.24,3.14-5.2,5.48-8.85,7.05-3.66,1.57-7.47,2.67-11.44,3.3-3.97.62-8.51.94-13.63.94-12.95,0-23.09-2.3-30.4-6.9l3.29-21.15c7.1,5.32,16.3,7.99,27.58,7.99,6.58,0,10.08-1.26,10.5-3.77.31-1.78-.81-3.31-3.37-4.62-2.55-1.3-5.74-2.56-9.56-3.76-3.81-1.2-7.54-2.69-11.2-4.47-3.66-1.77-6.61-4.44-8.86-7.99-2.24-3.56-2.95-7.84-2.11-12.85.73-4.39,2.3-8.12,4.7-11.21"/>
    <path class="cls-1" d="M479.95,179.63l-4.39,27.43h20.37l-3.44,21.94h-20.38l-4.07,25.22c-.52,3.03-.16,5.2,1.1,6.5,1.25,1.31,3.61,1.96,7.06,1.96,4.49,0,8.78-.68,12.85-2.04l-3.29,21c-4.91,1.98-11.44,2.98-19.59,2.98s-14.89-2.14-19.9-6.43c-5.01-4.28-6.79-11.02-5.33-20.21l4.54-28.99h-11.91l3.44-21.94h11.91l3.45-21.15,27.58-6.27Z"/>
    <path class="cls-1" d="M585.56,207.05l-11.91,75.21h-23.51l1.41-8.62c-6.69,7.31-14.84,10.97-24.45,10.97s-16.61-3.06-21.31-9.17c-4.7-6.11-6.37-13.61-5.01-22.49l7.21-45.91h26.64l-6.89,43.88c-1.15,7.32,1.67,10.96,8.46,10.96,5.95,0,11.02-2.4,15.19-7.2l7.52-47.64h26.64Z"/>
    <path class="cls-1" d="M599.97,215.91c2.4-3.08,5.38-5.38,8.93-6.89,3.55-1.51,7.1-2.61,10.65-3.29,3.56-.68,7.31-1.02,11.28-1.02,10.45,0,20.11,2.14,28.99,6.43l-3.29,21.15c-7.94-5.32-16.35-7.99-25.23-7.99-5.22,0-8.05,1.26-8.46,3.77-.31,1.88.81,3.47,3.37,4.78,2.56,1.31,5.72,2.55,9.48,3.76,3.76,1.2,7.49,2.64,11.2,4.31,3.71,1.67,6.66,4.28,8.86,7.83,2.19,3.55,2.87,7.95,2.04,13.16-.74,4.5-2.22,8.31-4.47,11.44-2.25,3.14-5.2,5.48-8.85,7.05-3.66,1.57-7.47,2.67-11.44,3.3-3.97.62-8.52.94-13.63.94-12.96,0-23.09-2.3-30.41-6.9l3.29-21.15c7.1,5.32,16.3,7.99,27.58,7.99,6.58,0,10.08-1.26,10.5-3.77.32-1.78-.81-3.31-3.37-4.62-2.56-1.3-5.74-2.56-9.56-3.76-3.81-1.2-7.55-2.69-11.21-4.47-3.66-1.77-6.61-4.44-8.85-7.99-2.25-3.56-2.95-7.84-2.12-12.85.73-4.39,2.3-8.12,4.7-11.21"/>
    <path class="cls-1" d="M167.97,39.99l-6.42,39.96c7-5.23,14.1-7.84,21.31-7.84,9.51,0,16.55,3.06,21.15,9.17,4.6,6.11,6.21,13.61,4.85,22.49l-7.36,45.91h-26.64l6.89-43.88c1.15-7.32-1.62-10.96-8.3-10.96-5.33,0-10.45,2.45-15.36,7.36l-7.52,47.48h-26.64l17.39-109.69h26.64Z"/>
    <polygon class="cls-1" points="117.52 172.58 74.74 228.52 101.07 282.27 70.2 282.27 50.3 239.97 35.73 239.97 28.99 282.27 0 282.27 17.4 172.58 46.38 172.58 39.8 214.1 54.38 214.1 85.71 172.58 117.52 172.58"/>
  </g>
</svg>